<svg xmlns="http://www.w3.org/2000/svg" viewBox="0 0 137.31 54.68"><defs><style>.cls-1{fill:#231815;}.cls-2{fill:#023c6f;}.cls-3{fill:#86a1cb;}</style></defs><title>資產 1</title><g id="圖層_2" data-name="圖層 2"><g id="圖層_1-2" data-name="圖層 1"><path class="cls-1" d="M0,47.72a.24.24,0,0,1,.08-.19.24.24,0,0,1,.18-.07H.84a.21.21,0,0,1,.18.07.26.26,0,0,1,.07.19v6.69A.25.25,0,0,1,1,54.6a.22.22,0,0,1-.18.08H.26a.25.25,0,0,1-.18-.08A.22.22,0,0,1,0,54.41Zm1.9,3A.29.29,0,0,1,2,50.49a.26.26,0,0,1,.19-.08H6.24V47.72a.27.27,0,0,1,.08-.19.24.24,0,0,1,.18-.07h.55a.25.25,0,0,1,.19.07.24.24,0,0,1,.08.19v6.69a.22.22,0,0,1-.08.19.26.26,0,0,1-.19.08H6.5a.25.25,0,0,1-.18-.08.26.26,0,0,1-.08-.19v-3H2.16A.29.29,0,0,1,2,51.31a.29.29,0,0,1-.07-.19Z"/><path class="cls-1" d="M11.16,53.8H15.4a.23.23,0,0,1,.17.07.24.24,0,0,1,.07.17v.4a.26.26,0,0,1-.07.17.23.23,0,0,1-.17.07h-5a.2.2,0,0,1-.16-.07.22.22,0,0,1-.07-.17V49a.24.24,0,0,1,.23-.24h4.89a.26.26,0,0,1,.17.07.23.23,0,0,1,.07.17v.41a.23.23,0,0,1-.07.17.26.26,0,0,1-.17.07H11.16Zm.74-2.41a.24.24,0,0,1,.24-.24H15a.23.23,0,0,1,.17.07.26.26,0,0,1,.07.17v.41a.24.24,0,0,1-.07.17A.27.27,0,0,1,15,52H12.14A.25.25,0,0,1,12,52a.21.21,0,0,1-.07-.17Z"/><path class="cls-1" d="M19.38,50.38a.56.56,0,0,1,.08.14.25.25,0,0,1-.07.14l-.32.39a.13.13,0,0,1-.11.07.11.11,0,0,1-.08,0L18.79,51l-1.93-2a.26.26,0,0,1-.09-.17s0-.07.11-.07h.72a.46.46,0,0,1,.2,0l.16.08.13.11Zm3.85,4.06a.27.27,0,0,1,.08.16s0,.08-.11.08h-.77a.46.46,0,0,1-.23-.07.92.92,0,0,1-.22-.17l-2-2.2-2,2.34a.21.21,0,0,1-.18.1h-.73c-.08,0-.11,0-.11-.1a.29.29,0,0,1,.07-.14l4.67-5.6a.24.24,0,0,1,.19-.1h.74c.07,0,.11,0,.11.09a.27.27,0,0,1-.07.15l-2.17,2.58Z"/><path class="cls-1" d="M27.12,49a.4.4,0,0,1,.35-.24H28a.4.4,0,0,1,.2.07.69.69,0,0,1,.17.17l2.89,5.46a.45.45,0,0,1,0,.11c0,.09-.05.13-.14.13h-.64a.29.29,0,0,1-.25-.17l-.66-1.23H26.84c-.1,0-.14,0-.14-.13a.45.45,0,0,1,0-.11l.22-.43a.29.29,0,0,1,.25-.17h1.92l-1.41-2.76-2.47,4.83a.23.23,0,0,1-.1.12.3.3,0,0,1-.15,0h-.6c-.1,0-.14,0-.14-.13a.45.45,0,0,1,0-.11Z"/><path class="cls-1" d="M35.11,54a.21.21,0,0,1,.07-.17.22.22,0,0,1,.17-.07h2.84a.41.41,0,0,0,.41-.41V50a.4.4,0,0,0-.12-.29.44.44,0,0,0-.29-.11H34.38v4.81a.22.22,0,0,1-.07.17.2.2,0,0,1-.16.07h-.54a.2.2,0,0,1-.16-.07.22.22,0,0,1-.07-.17V49a.24.24,0,0,1,.23-.24h4.73a1.19,1.19,0,0,1,.9.37,1.22,1.22,0,0,1,.37.89v3.42a1.25,1.25,0,0,1-1.28,1.26h-3a.24.24,0,0,1-.24-.24Z"/><path class="cls-1" d="M43,53.8h4.24a.23.23,0,0,1,.17.07.24.24,0,0,1,.07.17v.4a.26.26,0,0,1-.07.17.23.23,0,0,1-.17.07h-5a.2.2,0,0,1-.16-.07.22.22,0,0,1-.07-.17V49a.24.24,0,0,1,.23-.24h4.89a.26.26,0,0,1,.17.07.23.23,0,0,1,.07.17v.41a.23.23,0,0,1-.07.17.26.26,0,0,1-.17.07H43Zm.74-2.41a.22.22,0,0,1,.07-.17.21.21,0,0,1,.17-.07h2.87a.2.2,0,0,1,.16.07.22.22,0,0,1,.07.17v.41A.21.21,0,0,1,47,52a.23.23,0,0,1-.16.06H44a.24.24,0,0,1-.17-.06.21.21,0,0,1-.07-.17Z"/><path class="cls-1" d="M49.24,49.46a.75.75,0,0,1,.19-.48.66.66,0,0,1,.54-.24h4.45a.24.24,0,0,1,.17.07.28.28,0,0,1,.07.17v.41a.28.28,0,0,1-.07.17.24.24,0,0,1-.17.07H50.25V53.8h4.33a.21.21,0,0,1,.18.07.24.24,0,0,1,.06.17v.4a.25.25,0,0,1-.06.17.21.21,0,0,1-.18.07H50a.66.66,0,0,1-.52-.22.7.7,0,0,1-.19-.49Z"/><path class="cls-1" d="M56.74,49a.23.23,0,0,1,.07-.17.26.26,0,0,1,.17-.07h.53a.26.26,0,0,1,.17.07.23.23,0,0,1,.07.17v5.46a.24.24,0,0,1-.24.24H57a.24.24,0,0,1-.24-.24Z"/><path class="cls-1" d="M60.21,48.84a.09.09,0,0,1,.1-.1h.8a.17.17,0,0,1,.14.07l2.48,2.38,2.48-2.38a.21.21,0,0,1,.15-.07h.74c.07,0,.1,0,.1.07a.31.31,0,0,1-.11.21L64,52l-.07.06a.38.38,0,0,1-.19.05.42.42,0,0,1-.2-.05L63.46,52l-2.32-2.23v4.65a.26.26,0,0,1-.07.17.23.23,0,0,1-.17.07h-.45a.23.23,0,0,1-.17-.07.26.26,0,0,1-.07-.17Zm7,5.6a.24.24,0,0,1-.24.24h-.46a.23.23,0,0,1-.17-.07.26.26,0,0,1-.07-.17V50.86a.34.34,0,0,1,0-.14.67.67,0,0,1,.09-.14L67,50a.19.19,0,0,1,.13-.07s0,0,0,.07Z"/><path class="cls-1" d="M71.75,49a.47.47,0,0,1,.15-.17.4.4,0,0,1,.2-.07h.5a.44.44,0,0,1,.21.07A.64.64,0,0,1,73,49l2.9,5.46c0,.06,0,.09,0,.11s0,.13-.14.13h-.64a.29.29,0,0,1-.25-.17l-.66-1.23H71.47c-.09,0-.14,0-.14-.13a.45.45,0,0,1,0-.11l.22-.43a.3.3,0,0,1,.25-.17h1.92l-1.41-2.76-2.47,4.83a.23.23,0,0,1-.1.12.3.3,0,0,1-.15,0H69c-.09,0-.14,0-.14-.13a.45.45,0,0,1,0-.11Z"/><path class="cls-1" d="M77.59,49a.23.23,0,0,1,.07-.17.24.24,0,0,1,.17-.07h.5a.24.24,0,0,1,.24.24V53.8H82.5a.22.22,0,0,1,.17.07.21.21,0,0,1,.07.17v.4a.24.24,0,0,1-.24.24H77.83a.21.21,0,0,1-.17-.07.22.22,0,0,1-.07-.17Z"/><path class="cls-1" d="M89.4,48.23a.85.85,0,0,1,.21-.52.7.7,0,0,1,.58-.25h5.48a.25.25,0,0,1,.19.07.29.29,0,0,1,.07.18v.46a.29.29,0,0,1-.07.18.25.25,0,0,1-.19.07H90.49v5.29h5.37a.29.29,0,0,1,.18.07.25.25,0,0,1,.07.19v.46a.23.23,0,0,1-.07.17.25.25,0,0,1-.18.08H90.17a.71.71,0,0,1-.55-.24.74.74,0,0,1-.22-.53Z"/><path class="cls-1" d="M98.38,49.63a.74.74,0,0,1,.07-.32,1,1,0,0,1,.21-.29,1.1,1.1,0,0,1,.28-.2.79.79,0,0,1,.32-.08h4.55a.72.72,0,0,1,.32.08,1.1,1.1,0,0,1,.28.2,1.15,1.15,0,0,1,.2.29.76.76,0,0,1,.08.32V53.8a.75.75,0,0,1-.08.31,1,1,0,0,1-.2.29,1.1,1.1,0,0,1-.28.2.72.72,0,0,1-.32.08H99.26a.79.79,0,0,1-.32-.08,1.1,1.1,0,0,1-.28-.2.86.86,0,0,1-.21-.29.73.73,0,0,1-.07-.31Zm1,4.17h4.38V49.63H99.34Z"/><path class="cls-1" d="M106.82,53.57a.22.22,0,0,1,.25-.25h.84a.26.26,0,0,1,.25.25v.86a.26.26,0,0,1-.25.25h-.84a.22.22,0,0,1-.25-.25Z"/><path class="cls-1" d="M116.27,47.71a.24.24,0,0,1,.07-.18.26.26,0,0,1,.19-.07h.57a.24.24,0,0,1,.18.07.25.25,0,0,1,.08.18v6H122a.27.27,0,0,1,.27.27v.43a.27.27,0,0,1-.27.27h-5.49a.27.27,0,0,1-.19-.08.25.25,0,0,1-.07-.19Z"/><path class="cls-1" d="M123.11,49a.24.24,0,0,1,.24-.24h5.56a.24.24,0,0,1,.17.07.23.23,0,0,1,.07.17v.41a.23.23,0,0,1-.07.17.24.24,0,0,1-.17.07h-5.56a.24.24,0,0,1-.24-.24Zm2.51,1.58c0-.16.08-.23.24-.23h.53c.16,0,.24.07.24.23v3.88a.22.22,0,0,1-.07.17.21.21,0,0,1-.17.07h-.53a.21.21,0,0,1-.18-.07.25.25,0,0,1-.06-.17Z"/><path class="cls-1" d="M132.82,54a.21.21,0,0,1,.07-.17.2.2,0,0,1,.16-.07h2.85a.38.38,0,0,0,.28-.12.4.4,0,0,0,.12-.29V50a.4.4,0,0,0-.12-.29.41.41,0,0,0-.28-.11h-3.81v4.81a.26.26,0,0,1-.07.17.22.22,0,0,1-.17.07h-.53a.24.24,0,0,1-.24-.24V49a.23.23,0,0,1,.07-.17.26.26,0,0,1,.17-.07h4.73A1.26,1.26,0,0,1,137.31,50v3.42a1.22,1.22,0,0,1-.37.9,1.25,1.25,0,0,1-.9.36h-3a.2.2,0,0,1-.16-.07.22.22,0,0,1-.07-.17Z"/><path class="cls-2" d="M10.52,1.38a1.39,1.39,0,0,1,.36-1,1.14,1.14,0,0,1,.89-.4h2.77a1,1,0,0,1,.85.4,1.47,1.47,0,0,1,.33,1V36a1.49,1.49,0,0,1-.33,1,1.07,1.07,0,0,1-.85.4H11.77a1.18,1.18,0,0,1-.89-.4,1.41,1.41,0,0,1-.36-1Z"/><path class="cls-2" d="M110.63,17.74,126,36.2a1.14,1.14,0,0,1,.33.79c0,.25-.16.37-.47.37h-5.06a1.49,1.49,0,0,1-1-.58L107.43,21.57,96,36.78a2.27,2.27,0,0,1-.47.39.86.86,0,0,1-.53.19H90.35c-.31,0-.47-.15-.47-.44a1.09,1.09,0,0,1,.34-.72L117.5.58a1.11,1.11,0,0,1,.93-.58H123c.36,0,.54.14.54.43a1.73,1.73,0,0,1-.34.73ZM90.42,1.16a1.17,1.17,0,0,1-.34-.8c0-.24.16-.36.47-.36h4.94a1.45,1.45,0,0,1,1,.58l8.27,10.13a1.17,1.17,0,0,1,.13.44.52.52,0,0,1-.13.36l-2.27,3.11a.6.6,0,0,1-.47.22.56.56,0,0,1-.4-.22Z"/><path class="cls-3" d="M56.15,32.36H79.82a1.12,1.12,0,0,1,.84.4,1.39,1.39,0,0,1,.36,1v2.31a1.33,1.33,0,0,1-.36.91,1.15,1.15,0,0,1-.84.4H52.21a1.12,1.12,0,0,1-.83-.4,1.29,1.29,0,0,1-.37-.91V1.38a1.36,1.36,0,0,1,.37-1,1.08,1.08,0,0,1,.83-.4H79.49a1.16,1.16,0,0,1,.9.4,1.4,1.4,0,0,1,.37,1V3.69a1.34,1.34,0,0,1-.37.91,1.2,1.2,0,0,1-.9.4H56.15Z"/><path class="cls-3" d="M86.16,15.22a1.28,1.28,0,0,1,.84.36,1.14,1.14,0,0,1,.36.94V34.69a1.41,1.41,0,0,1-.34.91,1.08,1.08,0,0,1-.86.39H84.09a1.08,1.08,0,0,1-.87-.39,1.4,1.4,0,0,1-.33-.91V16.52a1.33,1.33,0,0,1,.33-.94,1.12,1.12,0,0,1,.87-.36Z"/><path class="cls-3" d="M40.25,1.38a1.39,1.39,0,0,1,.36-1,1.12,1.12,0,0,1,.88-.4h2.74a1,1,0,0,1,.85.4,1.52,1.52,0,0,1,.32,1V36a1.54,1.54,0,0,1-.32,1,1.07,1.07,0,0,1-.85.4H41.49a1.16,1.16,0,0,1-.88-.4,1.41,1.41,0,0,1-.36-1Z"/><path class="cls-2" d="M86.09,15.22a1.24,1.24,0,0,1,.9.35,1.16,1.16,0,0,1,.37.86v2.69A1.06,1.06,0,0,1,87,20a1.36,1.36,0,0,1-.9.32H20.58a1.32,1.32,0,0,1-.9-.32,1,1,0,0,1-.37-.83V16.43a1.12,1.12,0,0,1,.37-.86,1.21,1.21,0,0,1,.9-.35Z"/></g></g></svg>